<svg id="Layer_1" data-name="Layer 1" xmlns="http://www.w3.org/2000/svg" viewBox="0 0 40 40"><defs><style>.cls-1{fill:#7b868c;}</style></defs><title>Notifications</title><path class="cls-1" d="M32.73,26.41l-.07-.08-.13-.08a15.41,15.41,0,0,1-1.7-1,8.79,8.79,0,0,0-.72-.56c-.73-.53-.92-.71-.92-1.21v-5c0-4.56-2.47-8.38-6.31-9.76a3.22,3.22,0,0,0-3.19-2.28,3,3,0,0,0-3,2.23c-3.79,1.38-6.32,5.32-6.32,9.81v4.81c0,.7-.29,1-1.13,1.67L9,25.18a1.54,1.54,0,0,1-.19.17c-.42.37-1.35,1.08-1.37,1.09l-.07.07a1.48,1.48,0,0,0,.75,2.63.85.85,0,0,0,.37.08h23a.94.94,0,0,0,.36-.08,1.41,1.41,0,0,0,1.26-.88A1.66,1.66,0,0,0,32.73,26.41ZM29.12,26c.2.14.39.29.63.49a14,14,0,0,0,1.56,1H8.77c.32-.24.8-.62,1.09-.88l.44-.37a3.65,3.65,0,0,0,1.75-3V18.48c0-4,2.24-7.31,5.56-8.33l.44-.14.13-.44c.29-1,.57-1.43,1.52-1.43s1.39.43,1.69,1.49l.14.44.44.13c3.36,1,5.53,4.28,5.53,8.28v5A3,3,0,0,0,29.12,26Z"/><path class="cls-1" d="M20,33.56a4.3,4.3,0,0,1-4.32-4.37V29h1.69v.17a2.63,2.63,0,1,0,5.26,0V29h1.69v.17A4.3,4.3,0,0,1,20,33.56Z"/></svg>