<svg id="Layer_1" data-name="Layer 1" xmlns="http://www.w3.org/2000/svg" viewBox="0 0 40 40"><defs><style>.cls-1{fill:#00c3dc;}</style></defs><title>MyNotes</title><path class="cls-1" d="M28.52,32.59h-17a1.34,1.34,0,0,1-1.33-1.34V8.75a1.34,1.34,0,0,1,1.33-1.34h17a1.34,1.34,0,0,1,1.33,1.34v22.5A1.34,1.34,0,0,1,28.52,32.59ZM11.8,30.93H28.2V9.07H11.8Z"/><rect class="cls-1" x="14.98" y="13.7" width="10.07" height="1.24"/><rect class="cls-1" x="14.95" y="18.03" width="8.2" height="0.83"/><rect class="cls-1" x="14.95" y="19.87" width="10.07" height="0.83"/><rect class="cls-1" x="14.95" y="21.7" width="6.28" height="0.83"/><rect class="cls-1" x="14.98" y="23.53" width="8.2" height="0.83"/><rect class="cls-1" x="14.98" y="25.36" width="6.28" height="0.83"/></svg>