<svg id="Layer_1" data-name="Layer 1" xmlns="http://www.w3.org/2000/svg" viewBox="0 0 40 40"><defs><style>.cls-1{fill:#ffc600;}</style></defs><title>MyCode</title><path class="cls-1" d="M29.37,5.07l5.72,3.45.09,7L29.35,19.1l-5.84-3.56,0-7,5.82-3.47m0-1.92a1.09,1.09,0,0,0-.56.15L22.29,7.2a1.12,1.12,0,0,0-.54.93l0,7.8a1.06,1.06,0,0,0,.52.94l6.55,4a1.14,1.14,0,0,0,.57.16,1.06,1.06,0,0,0,.57-.17l6.54-4A1.07,1.07,0,0,0,37,15.9l-.09-7.8a1.1,1.1,0,0,0-.53-.92L29.93,3.3a1.12,1.12,0,0,0-.56-.15Z"/><path class="cls-1" d="M29.33,13.09a1.53,1.53,0,0,1-.81-.23L22,8.87l.47-.77,6.55,4a.65.65,0,0,0,.67,0l6.54-4,.47.77-6.53,4A1.58,1.58,0,0,1,29.33,13.09Z"/><path class="cls-1" d="M20,20.89l5.72,3.45.09,7-5.83,3.59-5.84-3.56.05-7L20,20.89M20,19a1,1,0,0,0-.56.16L12.87,23a1.07,1.07,0,0,0-.53.93l-.05,7.8a1.12,1.12,0,0,0,.52.94l6.55,4a1.07,1.07,0,0,0,.57.16,1,1,0,0,0,.57-.16l6.54-4a1.08,1.08,0,0,0,.52-1l-.09-7.79a1.13,1.13,0,0,0-.53-.93l-6.42-3.87A1.17,1.17,0,0,0,20,19Z"/><path class="cls-1" d="M19.91,28.92a1.55,1.55,0,0,1-.81-.23l-6.54-4,.46-.77,6.55,4a.69.69,0,0,0,.68,0l6.54-4,.47.77-6.54,4A1.58,1.58,0,0,1,19.91,28.92Z"/><path class="cls-1" d="M10.68,5.21,16.4,8.66l.09,7-5.83,3.58L4.82,15.68l0-7,5.82-3.47m0-1.92a1.12,1.12,0,0,0-.56.15L3.6,7.34a1.12,1.12,0,0,0-.54.93l0,7.8a1.07,1.07,0,0,0,.52.94l6.55,4a1.17,1.17,0,0,0,.57.16,1.06,1.06,0,0,0,.57-.17l6.54-4a1.07,1.07,0,0,0,.52-.94l-.09-7.8a1.1,1.1,0,0,0-.53-.92L11.24,3.44a1.12,1.12,0,0,0-.56-.15Z"/><path class="cls-1" d="M10.64,13.23A1.55,1.55,0,0,1,9.83,13L3.28,9l.47-.77,6.55,4a.62.62,0,0,0,.67,0l6.54-4L18,9l-6.54,4A1.58,1.58,0,0,1,10.64,13.23Z"/></svg>