<svg id="Layer_1" data-name="Layer 1" xmlns="http://www.w3.org/2000/svg" viewBox="0 0 40 40"><defs><style>.cls-1{fill:#93d500;}</style></defs><title>MyTeam</title><path class="cls-1" d="M31.71,9.32c.78,0,2.4,0,2.4,3.42,0,1.85-1.1,3.42-2.4,3.42s-2.39-1.57-2.39-3.42a4.24,4.24,0,0,1,.75-2.81,2.08,2.08,0,0,1,1.64-.61m0-1.33C29.66,8,28,9.21,28,12.74c0,2.62,1.67,4.75,3.72,4.75s3.73-2.13,3.73-4.75c0-3.6-1.67-4.75-3.73-4.75Z"/><path class="cls-1" d="M34.5,19.22A4.09,4.09,0,0,1,37.41,22a26.61,26.61,0,0,1-5.57.67A23.33,23.33,0,0,1,26.63,22a4.09,4.09,0,0,1,2.89-2.79,5.27,5.27,0,0,0,5,0m-.21-1.42a4.13,4.13,0,0,1-2.29.71,4,4,0,0,1-2.28-.71c-3,.66-4.26,2.66-4.68,5.17a24.64,24.64,0,0,0,6.8,1A29.4,29.4,0,0,0,39,23a5.75,5.75,0,0,0-4.73-5.17Z"/><path class="cls-1" d="M19.57,11.85c1.64,0,3.53.55,3.53,4.91,0,2.67-1.62,4.92-3.53,4.92s-3.52-2.25-3.52-4.92c0-2.11.36-4.91,3.52-4.91m0-1.53c-2.78,0-5,1.66-5,6.44,0,3.56,2.26,6.44,5,6.44s5.05-2.88,5.05-6.44c0-4.87-2.26-6.44-5.05-6.44Z"/><path class="cls-1" d="M23.31,25.24a6,6,0,0,1,4.34,4.27,36.73,36.73,0,0,1-7.91,1,31.89,31.89,0,0,1-7.41-.95,5.83,5.83,0,0,1,4.29-4.29,6.9,6.9,0,0,0,6.69,0m-.25-1.62a5.45,5.45,0,0,1-6.19,0c-4.06.88-5.78,3.59-6.34,7A33.17,33.17,0,0,0,19.74,32a39.64,39.64,0,0,0,9.73-1.39c-.58-3.41-2.34-6.13-6.41-7Z"/><path class="cls-1" d="M7.65,9.32c.78,0,2.4,0,2.4,3.42,0,1.85-1.1,3.42-2.4,3.42s-2.39-1.57-2.39-3.42A4.24,4.24,0,0,1,6,9.93a2.08,2.08,0,0,1,1.64-.61M7.65,8C5.6,8,3.93,9.21,3.93,12.74c0,2.62,1.67,4.75,3.72,4.75s3.73-2.13,3.73-4.75C11.38,9.14,9.71,8,7.65,8Z"/><path class="cls-1" d="M10.44,19.22A4.09,4.09,0,0,1,13.35,22a26.61,26.61,0,0,1-5.57.67A23.33,23.33,0,0,1,2.57,22a4.09,4.09,0,0,1,2.88-2.79,5.46,5.46,0,0,0,2.49.62,5.39,5.39,0,0,0,2.5-.63m-.21-1.42a4.13,4.13,0,0,1-2.29.71,4,4,0,0,1-2.28-.71C2.66,18.46,1.4,20.46,1,23a24.64,24.64,0,0,0,6.8,1A29.4,29.4,0,0,0,15,23a5.75,5.75,0,0,0-4.73-5.17Z"/></svg>