<?xml version="1.0" encoding="UTF-8"?>
<svg width="60px" height="34px" viewBox="0 0 60 34" version="1.1" xmlns="http://www.w3.org/2000/svg" xmlns:xlink="http://www.w3.org/1999/xlink">
    <!-- Generator: Sketch 55 (78076) - https://sketchapp.com -->
    <title>Group 14</title>
    <desc>Created with Sketch.</desc>
    <defs>
        <polygon id="path-1" points="0 33.5534516 59.4464516 33.5534516 59.4464516 -9.67741936e-05 0 -9.67741936e-05"></polygon>
    </defs>
    <g id="Version-2" stroke="none" stroke-width="1" fill="none" fill-rule="evenodd">
        <g id="Sign-Activated-Copy" transform="translate(-909.000000, -120.000000)">
            <g id="Group-14" transform="translate(909.000000, 120.000000)">
                <path d="M21.0337742,17.1202258 C21.3482903,16.4611935 21.7160323,15.8321613 22.1321613,15.2360323 L21.0337742,15.2360323 L21.0337742,17.1202258 Z" id="Fill-1" fill="#FFC700"></path>
                <path d="M18.0350323,21.6522581 C18.6253548,21.453871 19.232129,21.2941935 19.8543871,21.1916129 C19.8814839,20.9467742 19.929871,20.7058065 19.9705161,20.4648387 L19.9705161,17.8974194 L18.0350323,17.8974194 L18.0350323,21.6522581 Z" id="Fill-3" fill="#FFC700"></path>
                <path d="M13.9727419,23.9794839 L13.9727419,23.3862581 L12.0372581,23.3862581 L12.0372581,24.3569032 L13.541129,24.3569032 C13.6804839,24.2252903 13.8275806,24.1033548 13.9727419,23.9794839" id="Fill-5" fill="#FFC700"></path>
                <mask id="mask-2" fill="white">
                    <use xlink:href="#path-1"></use>
                </mask>
                <g id="Clip-8"></g>
                <polygon id="Fill-7" fill="#FFC700" mask="url(#mask-2)" points="15.0358065 21.930871 16.9712903 21.930871 16.9712903 13.5434516 15.0358065 13.5434516"></polygon>
                <polygon id="Fill-9" fill="#FFC700" mask="url(#mask-2)" points="12.0367742 21.930871 13.9722581 21.930871 13.9722581 10.3847419 12.0367742 10.3847419"></polygon>
                <path d="M1.93548387,2.90322581 C1.93548387,2.37 2.37,1.93548387 2.90322581,1.93548387 L37.2851613,1.93548387 C37.8183871,1.93548387 38.2529032,2.37 38.2529032,2.90322581 L38.2529032,5.93419355 L1.93548387,5.93419355 L1.93548387,2.90322581 Z M11.0448387,27.66 L2.90322581,27.66 C2.37,27.66 1.93548387,27.2254839 1.93548387,26.6922581 L1.93548387,7.86967742 L38.2529032,7.86967742 L38.2529032,10.8725806 C38.94,11.2325806 39.5854839,11.6670968 40.1883871,12.1548387 L40.1883871,2.90322581 C40.1883871,1.30258065 38.8858065,0 37.2851613,0 L2.90322581,0 C1.30258065,0 0,1.30258065 0,2.90322581 L0,26.6922581 C0,28.2929032 1.30258065,29.5954839 2.90322581,29.5954839 L10.2464516,29.5954839 C10.4564516,28.9248387 10.7235484,28.2774194 11.0448387,27.66 L11.0448387,27.66 Z" id="Fill-10" fill="#FFC700" mask="url(#mask-2)"></path>
                <path d="M4.4223871,2.82764516 C3.84754839,2.82764516 3.38109677,3.29409677 3.38109677,3.86893548 C3.38109677,4.44474194 3.84754839,4.91022581 4.4223871,4.91022581 C4.99722581,4.91022581 5.46367742,4.44474194 5.46367742,3.86893548 C5.46367742,3.29409677 4.99722581,2.82764516 4.4223871,2.82764516" id="Fill-11" fill="#FFC700" mask="url(#mask-2)"></path>
                <path d="M7.77687097,2.82764516 C7.20203226,2.82764516 6.73558065,3.29409677 6.73558065,3.86893548 C6.73558065,4.44474194 7.20203226,4.91022581 7.77687097,4.91022581 C8.35267742,4.91022581 8.81912903,4.44474194 8.81912903,3.86893548 C8.81912903,3.29409677 8.35267742,2.82764516 7.77687097,2.82764516" id="Fill-12" fill="#FFC700" mask="url(#mask-2)"></path>
                <path d="M13.7137742,31.6179677 L57.5002258,31.6179677 C57.3995806,29.667 56.6089355,27.6105484 55.4718387,26.4734516 C54.5766774,25.5860323 53.4511935,24.9637742 52.2202258,24.6763548 L51.4886129,24.5050645 L51.4721613,23.7550645 C51.4586129,23.1289355 51.3540968,22.5095806 51.1595806,21.9144194 C50.8857097,21.083129 50.4424839,20.3340968 49.8424839,19.6915161 L49.7699032,19.617 C48.6173226,18.4266774 47.010871,17.7463548 45.3550645,17.7463548 C45.3386129,17.7463548 45.3221613,17.7473226 45.3057097,17.7473226 L45.1828065,17.7473226 C43.8995806,17.7695806 42.6318387,18.1499032 41.5344194,18.8476452 L40.5347419,19.4815161 L40.1118387,18.3753871 C38.997,15.4605484 36.2050645,13.4999032 33.1024839,13.4215161 L32.6466774,13.4224839 C27.9521613,13.4853871 23.9157097,17.3786129 23.6621613,22.1021613 C23.6311935,22.6876452 23.6611935,23.2789355 23.7521613,23.8586129 L23.9524839,25.1302258 L22.6750645,24.9695806 C22.3605484,24.9299032 22.0402258,24.9095806 21.7247419,24.9095806 L21.6047419,24.9095806 C17.760871,24.9647419 14.4115161,27.8892581 13.7137742,31.6179677 L13.7137742,31.6179677 Z M59.3679677,33.5534516 L11.6050645,33.5534516 L11.6592581,32.5344194 C11.9360323,27.3376452 16.3915161,23.0486129 21.5911935,22.9740968 L21.7228065,22.9740968 C21.7102258,22.6479677 21.7121613,22.3228065 21.7295806,21.9976452 C22.0218387,16.5511935 26.4724839,12.0153871 31.8240968,11.5286129 L31.8240968,11.4976452 L32.7782903,11.4840968 C36.4034516,11.4279677 39.8011935,13.4834516 41.4666774,16.6779677 C42.6202258,16.1321613 43.8802258,15.8340968 45.1653871,15.8118387 L45.297,15.8118387 C45.3192581,15.8118387 45.3405484,15.810871 45.3628065,15.810871 C47.5324839,15.810871 49.6450645,16.7050645 51.1605484,18.270871 L51.2457097,18.3589355 C52.0499032,19.2202258 52.6353871,20.2092581 52.9982903,21.3105484 C53.1763548,21.8573226 53.2973226,22.4176452 53.3602258,22.9857097 C54.6657097,23.4066774 55.857,24.1295806 56.8373226,25.1011935 C58.5415161,26.8063548 59.6050645,29.9089355 59.427,32.6486129 L59.3679677,33.5534516 Z" id="Fill-13" fill="#FFFFFF" mask="url(#mask-2)"></path>
            </g>
        </g>
    </g>
</svg>