<svg id="Layer_1" data-name="Layer 1" xmlns="http://www.w3.org/2000/svg" viewBox="0 0 37.99 43.49"><defs><style>.cls-1{fill:#424f5a;}</style></defs><title>ProfileButton</title><path class="cls-1" d="M23.85,6.3c3.29,0,7.07,1.13,7.07,9.86,0,5.35-3.24,9.86-7.07,9.86s-7.07-4.51-7.07-9.86c0-4.23.74-9.86,7.07-9.86m0-3c-5.59,0-10.12,3.31-10.12,12.9,0,7.13,4.53,12.91,10.12,12.91S34,23.33,34,16.2C34,6.44,29.44,3.3,23.85,3.3Z" transform="translate(-5.71 -3.3)"/><path class="cls-1" d="M31.35,33.17a11.93,11.93,0,0,1,8.7,8.56,75,75,0,0,1-15.86,2A63.7,63.7,0,0,1,9.32,41.79a11.66,11.66,0,0,1,8.62-8.6,13.84,13.84,0,0,0,13.41,0m-.5-3.27a10.88,10.88,0,0,1-12.43,0C10.29,31.7,6.85,37.13,5.71,44a66.88,66.88,0,0,0,18.48,2.79A79.44,79.44,0,0,0,43.7,44C42.5,37.1,39,31.66,30.85,29.9Z" transform="translate(-5.71 -3.3)"/></svg>